<svg xmlns="http://www.w3.org/2000/svg" viewBox="0 0 1180 300" width="1180" height="300" role="img" aria-label="Quartermaster - acquisitions, rationed">
  <defs>
    <radialGradient id="bg" gradientUnits="userSpaceOnUse" cx="280" cy="80" r="1150">
      <stop offset="0" stop-color="#2B3720"/>
      <stop offset="1" stop-color="#10160A"/>
    </radialGradient>
    <radialGradient id="fld" gradientUnits="userSpaceOnUse" cx="256" cy="196" r="330">
      <stop offset="0" stop-color="#3A4A29"/>
      <stop offset="1" stop-color="#121A0B"/>
    </radialGradient>
    <linearGradient id="br" gradientUnits="userSpaceOnUse" x1="256" y1="92" x2="256" y2="408">
      <stop offset="0" stop-color="#F1CF73"/>
      <stop offset=".55" stop-color="#CF9E37"/>
      <stop offset="1" stop-color="#A8761C"/>
    </linearGradient>
  </defs>

  <rect x="0" y="0" width="1180" height="300" rx="36" fill="url(#bg)"/>

  <!-- key mark -->
  <g transform="translate(34 32) scale(0.4609)">
    <rect x="32" y="32" width="448" height="448" rx="116" fill="url(#fld)"/>
    <rect x="46" y="46" width="420" height="420" rx="104" fill="none" stroke="#CF9E37" stroke-width="3" opacity=".34"/>
    <circle cx="256" cy="168" r="80" fill="url(#br)"/>
    <circle cx="256" cy="168" r="73" fill="none" stroke="#714e0d" stroke-width="9" stroke-dasharray="3 11.4" opacity=".5"/>
    <path fill="url(#fld)" d="M256 126 L266.58 153.44 L295.94 155.02 L273.12 173.56 L280.69 201.98 L256 186 L231.31 201.98 L238.88 173.56 L216.06 155.02 L245.42 153.44 Z"/>
    <rect x="227" y="242" width="58" height="24" rx="10" fill="url(#br)"/>
    <rect x="239" y="252" width="34" height="118" rx="15" fill="url(#br)"/>
    <path fill="url(#br)" d="M256 344 L372 344 L372 360 L340 360 L340 376 L308 376 L308 392 L276 392 L276 404 L256 404 Z"/>
  </g>

  <!-- ledger column rule -->
  <line x1="300" y1="66" x2="300" y2="234" stroke="#CF9E37" stroke-width="2" opacity=".4"/>

  <!-- wordmark (slab for a ledger/requisition feel) -->
  <g fill="#F2E9D2"><path transform="translate(338.0 156.0) scale(0.08200 -0.08200)" d="M689 326Q689 193 607 97L676 26L607 -43L530 35Q453 -10 357 -10Q202 -10 116.0 89.0Q30 188 30 324Q30 466 120.0 563.0Q210 660 360 660Q512 660 600.5 561.5Q689 463 689 326ZM569 323Q569 432 513.5 497.0Q458 562 359 562Q255 562 202.5 494.5Q150 427 150 327Q150 230 201.5 159.0Q253 88 362 88Q416 88 457 110L351 219L420 288L530 176Q569 234 569 323Z"/><path transform="translate(399.4 156.0) scale(0.08200 -0.08200)" d="M688 555H628V268Q628 199 602.5 135.5Q577 72 517.5 31.0Q458 -10 356 -10Q209 -10 151.0 71.0Q93 152 93 257V555H31V650H285V555H204V260Q204 183 241.0 135.5Q278 88 362 88Q444 88 484.0 135.5Q524 183 524 268V555H441V650H688Z"/><path transform="translate(460.4 156.0) scale(0.08200 -0.08200)" d="M675 0H426V95H492L459 184H216L181 95H254V0H8V95H68L264 555H169V650H378L612 95H675ZM429 265 344 491H338L248 265Z"/><path transform="translate(517.5 156.0) scale(0.08200 -0.08200)" d="M619 0H467L333 257H226V95H302V0H40V95H115V555H40V650H329Q450 650 510.0 599.5Q570 549 570 458Q570 393 535.5 346.5Q501 300 440 280L539 95H619ZM452 455Q452 510 420.0 532.5Q388 555 311 555H226V346H310Q390 346 421.0 374.5Q452 403 452 455Z"/><path transform="translate(571.2 156.0) scale(0.08200 -0.08200)" d="M618 438 522 430 502 555H375V95H484V0H159V95H264V555H136L116 430L21 438L41 650H598Z"/><path transform="translate(625.6 156.0) scale(0.08200 -0.08200)" d="M535 0H40V95H115V555H40V650H528L548 462L453 454L433 555H226V375H512V280H226V95H440L460 196L555 188Z"/><path transform="translate(676.0 156.0) scale(0.08200 -0.08200)" d="M619 0H467L333 257H226V95H302V0H40V95H115V555H40V650H329Q450 650 510.0 599.5Q570 549 570 458Q570 393 535.5 346.5Q501 300 440 280L539 95H619ZM452 455Q452 510 420.0 532.5Q388 555 311 555H226V346H310Q390 346 421.0 374.5Q452 403 452 455Z"/><path transform="translate(729.7 156.0) scale(0.08200 -0.08200)" d="M859 555H777V95H851V0H602V95H666V406H662L473 46H423L224 415H220V95H288V0H42V95H116V555H34V650H210L450 207H454L682 650H859Z"/><path transform="translate(804.9 156.0) scale(0.08200 -0.08200)" d="M675 0H426V95H492L459 184H216L181 95H254V0H8V95H68L264 555H169V650H378L612 95H675ZM429 265 344 491H338L248 265Z"/><path transform="translate(862.0 156.0) scale(0.08200 -0.08200)" d="M512 191Q512 94 444.5 42.0Q377 -10 266 -10Q200 -10 138.5 6.0Q77 22 41 52L59 201L148 192L146 112Q179 95 206.5 90.5Q234 86 258 86Q316 86 354.5 104.5Q393 123 393 179Q393 240 349.0 260.5Q305 281 248 292Q202 301 155.0 316.0Q108 331 77.0 366.0Q46 401 46 469Q46 571 115.5 615.5Q185 660 271 660Q331 660 387.5 642.0Q444 624 476 595L482 458L393 450L384 534Q356 550 328.0 556.0Q300 562 274 562Q227 562 196.0 543.0Q165 524 165 482Q165 433 203.5 415.5Q242 398 290 387Q331 378 383.0 363.0Q435 348 473.5 309.5Q512 271 512 191Z"/><path transform="translate(909.0 156.0) scale(0.08200 -0.08200)" d="M618 438 522 430 502 555H375V95H484V0H159V95H264V555H136L116 430L21 438L41 650H598Z"/><path transform="translate(963.4 156.0) scale(0.08200 -0.08200)" d="M535 0H40V95H115V555H40V650H528L548 462L453 454L433 555H226V375H512V280H226V95H440L460 196L555 188Z"/><path transform="translate(1013.8 156.0) scale(0.08200 -0.08200)" d="M619 0H467L333 257H226V95H302V0H40V95H115V555H40V650H329Q450 650 510.0 599.5Q570 549 570 458Q570 393 535.5 346.5Q501 300 440 280L539 95H619ZM452 455Q452 510 420.0 532.5Q388 555 311 555H226V346H310Q390 346 421.0 374.5Q452 403 452 455Z"/></g>
  <!-- tagline -->
  <g fill="#D9AE55"><path transform="translate(341.0 205.0) scale(0.01074 -0.01074)" d="M51 0 581 1490H861L1401 0H1154L1017 393H431L298 0ZM950 583 864 829Q830 930 790 1067Q758 1173 720 1311Q682 1171 651 1064Q610 925 579 829L496 583Z"/><path transform="translate(363.6 205.0) scale(0.01074 -0.01074)" d="M784 -20Q591 -20 439.0 71.5Q287 163 200.0 334.5Q113 506 113 744Q113 983 200.0 1154.5Q287 1326 439.0 1418.0Q591 1510 784 1510Q902 1510 1005.5 1476.0Q1109 1442 1190.5 1377.0Q1272 1312 1325.5 1219.0Q1379 1126 1398 1008H1169Q1155 1079 1119.5 1133.5Q1084 1188 1033.0 1226.0Q982 1264 919.0 1283.0Q856 1302 786 1302Q658 1302 556.5 1237.5Q455 1173 397.0 1048.5Q339 924 339 744Q339 564 398.0 439.5Q457 315 558.0 251.5Q659 188 786 188Q856 188 918.5 207.5Q981 227 1032.5 264.5Q1084 302 1119.5 357.0Q1155 412 1169 482H1399Q1382 372 1330.0 280.5Q1278 189 1197.0 121.0Q1116 53 1011.5 16.5Q907 -20 784 -20Z"/><path transform="translate(386.7 205.0) scale(0.01074 -0.01074)" d="M786 -20Q593 -20 440.5 71.5Q288 163 200.5 334.5Q113 506 113 744Q113 983 200.5 1154.5Q288 1326 440.5 1418.0Q593 1510 786.0 1510.0Q979 1510 1130.5 1418.0Q1282 1326 1369.5 1154.5Q1457 983 1457 744Q1457 506 1370 335Q1305 209 1207 126L1406 -135H1179L1052 31Q931 -20 786 -20ZM713 481H932L1073 298Q1133 354 1173 440Q1231 564 1231 744Q1231 926 1172.5 1050.5Q1114 1175 1013.5 1238.5Q913 1302 786 1302Q658 1302 557.0 1238.0Q456 1174 397.5 1049.5Q339 925 339 744Q339 564 397.5 440.0Q456 316 557.0 252.0Q658 188 786 188Q858 188 921 208Z"/><path transform="translate(410.6 205.0) scale(0.01074 -0.01074)" d="M759 -23Q580 -23 446.0 46.0Q312 115 238.5 235.5Q165 356 165 512V1490H393V531Q393 430 437.5 352.0Q482 274 564.0 229.0Q646 184 759 184Q871 184 952.5 229.0Q1034 274 1078.0 352.0Q1122 430 1122 531V1490H1351V512Q1351 356 1277.5 235.5Q1204 115 1070.5 46.0Q937 -23 759 -23Z"/><path transform="translate(433.9 205.0) scale(0.01074 -0.01074)" d="M393 1490V0H165V1490Z"/><path transform="translate(446.9 205.0) scale(0.01074 -0.01074)" d="M665 -25Q498 -25 375.0 28.0Q252 81 182.5 179.5Q113 278 106 414H335Q342 333 387.5 280.0Q433 227 506.0 201.0Q579 175 664 175Q759 175 832.5 204.5Q906 234 949.0 288.5Q992 343 992 415Q992 480 954.5 521.5Q917 563 853.5 590.5Q790 618 709 639L535 687Q352 736 249.5 832.0Q147 928 147 1081Q147 1210 216.5 1306.5Q286 1403 405.5 1456.5Q525 1510 675 1510Q828 1510 944.5 1456.5Q1061 1403 1127.5 1310.0Q1194 1217 1197 1098H975Q964 1200 880.5 1256.0Q797 1312 670 1312Q580 1312 513.5 1284.0Q447 1256 410.5 1206.5Q374 1157 374 1094Q374 1023 417.5 979.5Q461 936 523.5 910.5Q586 885 643 870L788 832Q859 814 934.5 783.5Q1010 753 1074.0 704.5Q1138 656 1177.5 584.5Q1217 513 1217 412Q1217 286 1152.0 187.0Q1087 88 963.5 31.5Q840 -25 665 -25Z"/><path transform="translate(468.1 205.0) scale(0.01074 -0.01074)" d="M393 1490V0H165V1490Z"/><path transform="translate(481.1 205.0) scale(0.01074 -0.01074)" d="M90 1294V1490H1247V1294H784V0H555V1294Z"/><path transform="translate(502.5 205.0) scale(0.01074 -0.01074)" d="M393 1490V0H165V1490Z"/><path transform="translate(515.5 205.0) scale(0.01074 -0.01074)" d="M786 -20Q593 -20 440.5 71.5Q288 163 200.5 334.5Q113 506 113 744Q113 983 200.5 1154.5Q288 1326 440.5 1418.0Q593 1510 786 1510Q979 1510 1130.5 1418.0Q1282 1326 1369.5 1154.5Q1457 983 1457 744Q1457 506 1369.5 334.5Q1282 163 1130.5 71.5Q979 -20 786 -20ZM786 188Q913 188 1013.5 251.5Q1114 315 1172.5 439.5Q1231 564 1231 744Q1231 926 1172.5 1050.5Q1114 1175 1013.5 1238.5Q913 1302 786 1302Q658 1302 557.0 1238.0Q456 1174 397.5 1049.5Q339 925 339 744Q339 564 397.5 440.0Q456 316 557.0 252.0Q658 188 786 188Z"/><path transform="translate(539.3 205.0) scale(0.01074 -0.01074)" d="M165 0V1490H428L989 603Q1017 559 1052.0 498.0Q1087 437 1126 361Q1147 320 1167 275Q1164 319 1162 363Q1157 446 1155.0 519.0Q1153 592 1153 642V1490H1384V0H1120L617 793Q577 858 538.5 924.0Q500 990 454 1077Q421 1136 379 1214Q383 1145 386 1082Q391 986 393.5 912.5Q396 839 396 795V0Z"/><path transform="translate(563.0 205.0) scale(0.01074 -0.01074)" d="M665 -25Q498 -25 375.0 28.0Q252 81 182.5 179.5Q113 278 106 414H335Q342 333 387.5 280.0Q433 227 506.0 201.0Q579 175 664 175Q759 175 832.5 204.5Q906 234 949.0 288.5Q992 343 992 415Q992 480 954.5 521.5Q917 563 853.5 590.5Q790 618 709 639L535 687Q352 736 249.5 832.0Q147 928 147 1081Q147 1210 216.5 1306.5Q286 1403 405.5 1456.5Q525 1510 675 1510Q828 1510 944.5 1456.5Q1061 1403 1127.5 1310.0Q1194 1217 1197 1098H975Q964 1200 880.5 1256.0Q797 1312 670 1312Q580 1312 513.5 1284.0Q447 1256 410.5 1206.5Q374 1157 374 1094Q374 1023 417.5 979.5Q461 936 523.5 910.5Q586 885 643 870L788 832Q859 814 934.5 783.5Q1010 753 1074.0 704.5Q1138 656 1177.5 584.5Q1217 513 1217 412Q1217 286 1152.0 187.0Q1087 88 963.5 31.5Q840 -25 665 -25Z"/><path transform="translate(584.2 205.0) scale(0.01074 -0.01074)" d="M125 -371 213 214H450L285 -371Z"/><path transform="translate(610.7 205.0) scale(0.01074 -0.01074)" d="M165 0V1490H699Q871 1490 986.0 1430.5Q1101 1371 1158.0 1265.0Q1215 1159 1215 1022Q1215 884 1157.5 780.5Q1100 677 985 620Q965 610 943 602L1271 0H1012L710 563Q704 563 697 563H393V0ZM393 758H675Q785 758 852.5 789.5Q920 821 952.0 880.0Q984 939 984 1022Q984 1106 952.0 1167.0Q920 1228 852.0 1261.5Q784 1295 673 1295H393Z"/><path transform="translate(632.0 205.0) scale(0.01074 -0.01074)" d="M51 0 581 1490H861L1401 0H1154L1017 393H431L298 0ZM950 583 864 829Q830 930 790 1067Q758 1173 720 1311Q682 1171 651 1064Q610 925 579 829L496 583Z"/><path transform="translate(654.6 205.0) scale(0.01074 -0.01074)" d="M90 1294V1490H1247V1294H784V0H555V1294Z"/><path transform="translate(676.0 205.0) scale(0.01074 -0.01074)" d="M393 1490V0H165V1490Z"/><path transform="translate(688.9 205.0) scale(0.01074 -0.01074)" d="M786 -20Q593 -20 440.5 71.5Q288 163 200.5 334.5Q113 506 113 744Q113 983 200.5 1154.5Q288 1326 440.5 1418.0Q593 1510 786 1510Q979 1510 1130.5 1418.0Q1282 1326 1369.5 1154.5Q1457 983 1457 744Q1457 506 1369.5 334.5Q1282 163 1130.5 71.5Q979 -20 786 -20ZM786 188Q913 188 1013.5 251.5Q1114 315 1172.5 439.5Q1231 564 1231 744Q1231 926 1172.5 1050.5Q1114 1175 1013.5 1238.5Q913 1302 786 1302Q658 1302 557.0 1238.0Q456 1174 397.5 1049.5Q339 925 339 744Q339 564 397.5 440.0Q456 316 557.0 252.0Q658 188 786 188Z"/><path transform="translate(712.8 205.0) scale(0.01074 -0.01074)" d="M165 0V1490H428L989 603Q1017 559 1052.0 498.0Q1087 437 1126 361Q1147 320 1167 275Q1164 319 1162 363Q1157 446 1155.0 519.0Q1153 592 1153 642V1490H1384V0H1120L617 793Q577 858 538.5 924.0Q500 990 454 1077Q421 1136 379 1214Q383 1145 386 1082Q391 986 393.5 912.5Q396 839 396 795V0Z"/><path transform="translate(736.4 205.0) scale(0.01074 -0.01074)" d="M165 0V1490H1103V1294H393V850H1052V655H393V196H1109V0Z"/><path transform="translate(756.7 205.0) scale(0.01074 -0.01074)" d="M649 0H165V1490H664Q884 1490 1041.0 1401.0Q1198 1312 1282.0 1145.5Q1366 979 1366 747Q1366 514 1281.5 347.0Q1197 180 1036.5 90.0Q876 0 649 0ZM393 200H637Q806 200 918.0 263.0Q1030 326 1086.0 448.5Q1142 571 1142 747Q1142 922 1086.5 1043.0Q1031 1164 921.5 1227.0Q812 1290 649 1290H393Z"/><path transform="translate(779.6 205.0) scale(0.01074 -0.01074)" d="M311 -15Q249 -15 206.0 28.0Q163 71 163 132Q163 194 206.0 236.5Q249 279 311 279Q372 279 415.0 236.5Q458 194 458 132Q458 71 415.0 28.0Q372 -15 311 -15Z"/></g>
</svg>
