<svg xmlns="http://www.w3.org/2000/svg" viewBox="0 0 512 512" width="512" height="512" role="img" aria-label="Quartermaster">
  <defs>
    <radialGradient id="fld" gradientUnits="userSpaceOnUse" cx="256" cy="196" r="330">
      <stop offset="0" stop-color="#3A4A29"/>
      <stop offset="1" stop-color="#121A0B"/>
    </radialGradient>
    <linearGradient id="br" gradientUnits="userSpaceOnUse" x1="256" y1="92" x2="256" y2="408">
      <stop offset="0" stop-color="#F1CF73"/>
      <stop offset=".55" stop-color="#CF9E37"/>
      <stop offset="1" stop-color="#A8761C"/>
    </linearGradient>
  </defs>

  <!-- depot field -->
  <rect x="32" y="32" width="448" height="448" rx="116" fill="url(#fld)"/>
  <rect x="46" y="46" width="420" height="420" rx="104" fill="none" stroke="#CF9E37" stroke-width="3" opacity=".34"/>

  <!-- key in brass; the coin's star is a TRUE knockout (evenodd) so it shows the field through -->
  <g fill="url(#br)">
    <path fill-rule="evenodd" d="M176 168 a80 80 0 1 0 160 0 a80 80 0 1 0 -160 0 Z
      M256 126 L266.58 153.44 L295.94 155.02 L273.12 173.56 L280.69 201.98 L256 186 L231.31 201.98 L238.88 173.56 L216.06 155.02 L245.42 153.44 Z"/>
    <path d="M230 244 L282 244 L276 266 L236 266 Z"/>
    <rect x="237" y="258" width="38" height="114" rx="16"/>
    <path d="M256 348 L372 348 L372 364 L340 364 L340 380 L308 380 L308 396 L274 396 L274 408 L256 408 Z"/>
  </g>
</svg>
