<svg xmlns="http://www.w3.org/2000/svg" viewBox="0 0 512 512" width="512" height="512" role="img" aria-label="Quartermaster mark (mono)">
  <!-- Single-colour, transparent. Recolour by changing the group fill. -->
  <g fill="#26331C">
    <!-- bow = quarter with star punched through (evenodd hole) -->
    <path fill-rule="evenodd" d="M176 168 a80 80 0 1 0 160 0 a80 80 0 1 0 -160 0 Z
      M256 126 L266.58 153.44 L295.94 155.02 L273.12 173.56 L280.69 201.98 L256 186 L231.31 201.98 L238.88 173.56 L216.06 155.02 L245.42 153.44 Z"/>
    <rect x="227" y="242" width="58" height="24" rx="10"/>
    <rect x="239" y="252" width="34" height="118" rx="15"/>
    <!-- ascending bit -->
    <path d="M256 344 L372 344 L372 360 L340 360 L340 376 L308 376 L308 392 L276 392 L276 404 L256 404 Z"/>
  </g>
</svg>
