<svg xmlns="http://www.w3.org/2000/svg" viewBox="0 0 512 512" width="512" height="512" role="img" aria-label="Quartermaster">
  <defs>
    <radialGradient id="fld" gradientUnits="userSpaceOnUse" cx="256" cy="196" r="330">
      <stop offset="0" stop-color="#3A4A29"/>
      <stop offset="1" stop-color="#121A0B"/>
    </radialGradient>
    <linearGradient id="br" gradientUnits="userSpaceOnUse" x1="256" y1="92" x2="256" y2="408">
      <stop offset="0" stop-color="#F1CF73"/>
      <stop offset=".55" stop-color="#CF9E37"/>
      <stop offset="1" stop-color="#A8761C"/>
    </linearGradient>
  </defs>

  <!-- depot field -->
  <rect x="32" y="32" width="448" height="448" rx="116" fill="url(#fld)"/>
  <rect x="46" y="46" width="420" height="420" rx="104" fill="none" stroke="#CF9E37" stroke-width="3" opacity=".34"/>

  <!-- bow = reeded quarter with a star punched through -->
  <circle cx="256" cy="168" r="80" fill="url(#br)"/>
  <circle cx="256" cy="168" r="73" fill="none" stroke="#714e0d" stroke-width="9" stroke-dasharray="3 11.4" opacity=".5"/>
  <path fill="url(#fld)" d="M256 126 L266.58 153.44 L295.94 155.02 L273.12 173.56 L280.69 201.98 L256 186 L231.31 201.98 L238.88 173.56 L216.06 155.02 L245.42 153.44 Z"/>

  <!-- collar, shank, ASCENDING toothed bit (value climbs to the right) -->
  <rect x="227" y="242" width="58" height="24" rx="10" fill="url(#br)"/>
  <rect x="239" y="252" width="34" height="118" rx="15" fill="url(#br)"/>
  <path fill="url(#br)" d="M256 344 L372 344 L372 360 L340 360 L340 376 L308 376 L308 392 L276 392 L276 404 L256 404 Z"/>
</svg>
